<?xml version="1.0" encoding="utf-8"?>
<!-- Generator: Adobe Illustrator 18.0.0, SVG Export Plug-In . SVG Version: 6.00 Build 0)  -->
<!DOCTYPE svg PUBLIC "-//W3C//DTD SVG 1.1//EN" "http://www.w3.org/Graphics/SVG/1.1/DTD/svg11.dtd">
<svg version="1.1" id="Capa_1" xmlns="http://www.w3.org/2000/svg" xmlns:xlink="http://www.w3.org/1999/xlink" x="0px" y="0px"
	 viewBox="0 0 350 298" enable-background="new 0 0 350 298" xml:space="preserve">
<g>
	<g>
		<path fill="#4C8ECA" d="M188.8,71.3"/>
	</g>
	<g>
		<polygon fill="#4C8ECA" points="251.2,91.3 251.2,104.8 179.4,47.6 179.3,47.3 140.2,73.4 140.2,36.7 123.8,50.7 123.6,84.4 
			88.2,108 88.2,100.1 82.2,100.1 82.2,167.9 88.2,167.9 88.2,146.2 184.8,80.7 251.2,129.7 251.2,157.2 257.2,157.2 257.2,91.3 		
			"/>
		<path fill="#4C8ECA" d="M250.7,91.3v13.4l0.8-0.4l-71.8-57.2l0.2,0.2l-0.1-0.2l-0.2-0.6l-0.5,0.3l-39.1,26l0.8,0.4V36.7v-1.1
			l-0.8,0.7l-16.4,14l-0.2,0.1l0,0.2l-0.2,33.7l0.2-0.4l-35.4,23.6l0.8,0.4v-7.9v-0.5h-0.5h-6h-0.5v0.5v67.8v0.5h0.5h6h0.5v-0.5
			v-21.7l-0.2,0.4L185,81.1l-0.6,0l66.4,49l-0.2-0.4v27.5v0.5h0.5h6h0.5v-0.5V91.3v-0.5h-0.5h-6h-0.5V91.3z M256.7,91.3v65.8
			l0.5-0.5h-6l0.5,0.5v-27.5v-0.3l-0.2-0.1l-66.4-49l-0.3-0.2l-0.3,0.2l-96.6,65.6l-0.2,0.1v0.3v21.7l0.5-0.5h-6l0.5,0.5v-67.8
			l-0.5,0.5h6l-0.5-0.5v7.9v0.9l0.8-0.5l35.4-23.6l0.2-0.1l0-0.3l0.2-33.7l-0.2,0.4l16.4-14l-0.8-0.4v36.7v0.9l0.8-0.5l39.1-26
			l-0.7-0.2l0.1,0.2l0,0.1L179,48l71.8,57.2l0.8,0.6v-1V91.3l-0.5,0.5h6L256.7,91.3z"/>
	</g>
	<g>
		<circle fill="#4C8ECA" cx="167.6" cy="36.3" r="4.3"/>
		<path fill="#4C8ECA" d="M171.3,36.3c0,2.1-1.7,3.8-3.8,3.8s-3.8-1.7-3.8-3.8c0-2.1,1.7-3.8,3.8-3.8S171.3,34.2,171.3,36.3z
			 M167.6,31.5c-2.6,0-4.8,2.1-4.8,4.8c0,2.6,2.1,4.8,4.8,4.8c2.6,0,4.8-2.1,4.8-4.8C172.3,33.6,170.2,31.5,167.6,31.5z"/>
	</g>
	<g>
		<circle fill="#4C8ECA" cx="176.8" cy="6.5" r="5.3"/>
		<path fill="#4C8ECA" d="M181.6,6.5c0,2.6-2.1,4.8-4.8,4.8c-2.6,0-4.8-2.1-4.8-4.8c0-2.6,2.1-4.8,4.8-4.8
			C179.4,1.8,181.6,3.9,181.6,6.5z M176.8,0.8c-3.2,0-5.8,2.6-5.8,5.8c0,3.2,2.6,5.8,5.8,5.8s5.8-2.6,5.8-5.8
			C182.6,3.3,180,0.8,176.8,0.8z"/>
	</g>
	<g>
		<circle fill="#4C8ECA" cx="192.3" cy="45.3" r="2.3"/>
		<path fill="#4C8ECA" d="M194.1,45.3c0,1-0.8,1.8-1.8,1.8c-1,0-1.8-0.8-1.8-1.8c0-1,0.8-1.8,1.8-1.8
			C193.3,43.5,194.1,44.3,194.1,45.3z M192.3,42.5c-1.5,0-2.8,1.2-2.8,2.8c0,1.5,1.2,2.8,2.8,2.8s2.8-1.2,2.8-2.8
			C195.1,43.7,193.8,42.5,192.3,42.5z"/>
	</g>
	<g>
		<circle fill="#4C8ECA" cx="156.3" cy="18.5" r="2.3"/>
		<path fill="#4C8ECA" d="M158.1,18.5c0,1-0.8,1.8-1.8,1.8c-1,0-1.8-0.8-1.8-1.8c0-1,0.8-1.8,1.8-1.8
			C157.3,16.8,158.1,17.5,158.1,18.5z M156.3,15.8c-1.5,0-2.8,1.2-2.8,2.8c0,1.5,1.2,2.8,2.8,2.8s2.8-1.2,2.8-2.8
			C159.1,17,157.8,15.8,156.3,15.8z"/>
	</g>
</g>
<g>
	<path d="M-0.5,190.8c8.7-2.4,16.3-5.1,22.6-8l1.7,1.3c-0.6,5.7-0.9,11.4-1.1,17.2c-0.2,5.8-0.3,18.7-0.3,38.7l17.1-13.9
		c2.8-2.2,4.5-3.7,5.1-4.5c0.5-0.5,0.7-1,0.7-1.5c0-0.5-0.3-1-0.8-1.4c-0.5-0.4-1.9-0.7-3.9-0.8v-3.5c6.2,0.5,10.9,0.8,13.9,0.8
		c2.2,0,7.1-0.3,14.8-0.8v3.5c-6.2,1.2-10.2,2.2-12.1,3.1c-1.9,0.9-5.5,3.4-10.8,7.4l-12,9.2l19.8,21.2c2.9,3.1,5.4,5.2,7.4,6.2
		c2.1,1.1,5.7,2.2,11,3.2v3.5c-6.4-0.5-11.3-0.8-14.7-0.8c-2.4,0-8.2,0.3-17.5,0.8v-3.5c2.6-0.5,4.1-0.9,4.4-1.1
		c0.4-0.3,0.6-0.7,0.6-1.2c0-0.5-0.2-1-0.6-1.5c-0.6-0.9-2.8-3.4-6.8-7.7L22.4,240c0,11.8,0.1,19.1,0.4,21.8
		c0.1,1.6,0.6,2.8,1.5,3.5c0.8,0.7,3.2,1.5,7,2.3c0.7,0.1,1.7,0.4,3,0.7v3.5c-7.1-0.5-12.4-0.8-15.9-0.8c-2.4,0-8.5,0.3-18.3,0.8
		v-3.5c5.5-1,8.7-1.8,9.4-2.4c0.7-0.6,1.2-2.7,1.4-6.2c0.4-4.6,0.6-17.6,0.6-39l-0.2-16.9c0-0.5,0-1.1,0.1-1.6
		c0.1-0.5,0.1-1.1,0.1-1.7c0-3-0.4-4.9-1.1-5.7c-0.7-0.7-2-1.1-3.9-1.1c-1.5,0-3.8,0.2-6.8,0.5V190.8z"/>
	<path d="M87.4,230.5l-4.5-0.5c1.1-4.2,1.8-8.3,2.3-12.5c8.9-3.5,17-5.3,24.2-5.3c3.1,0,5.9,0.4,8.5,1.2c2.5,0.8,4.5,1.9,6,3.3
		c1.5,1.4,2.6,3,3.3,5c0.8,1.9,1.1,5,1.1,9.2l-0.6,24.9c0,3.4,0.4,5.6,1.3,6.6c0.9,1,2,1.6,3.4,1.6c1.7,0,4.3-1,7.9-3l2.2,2.5
		c-6.6,5.1-10.2,7.7-10.8,8.1c-1.3,0.6-2.9,1-4.9,1c-3,0-5.4-0.7-7-2c-1.7-1.3-2.8-3.6-3.3-6.8c-5.5,3.8-9.6,6.3-12.3,7.3
		c-2.7,1-5.6,1.5-8.7,1.5c-5.1,0-9.2-1.4-12.3-4.1c-3.1-2.7-4.7-6.2-4.7-10.4c0-2.6,0.6-4.9,1.7-7c1.1-2.1,2.7-3.9,4.8-5.5
		c1.6-1.2,4.3-2.6,8.1-4.2c9-3.8,16.8-6.9,23.4-9.3c-0.2-5.6-1.3-9.4-3.2-11.2c-1.9-1.8-4.9-2.8-8.9-2.8c-3.8,0-7,1-9.7,3
		C92,223,89.6,226.2,87.4,230.5z M116.4,237.3c-12,4.7-19.2,8.1-21.7,10.3c-2.5,2.2-3.8,4.7-3.8,7.8c0,3,0.9,5.4,2.8,7.2
		c1.9,1.8,4.1,2.7,6.6,2.7c2.6,0,5.4-0.8,8.5-2.3c3-1.5,5.1-3.3,6.1-5.1c1-1.9,1.5-5.3,1.5-10.3V237.3z"/>
	<path d="M147.1,194v-3.5c8.3-2.3,15.8-5,22.5-8l1.9,1c-1.1,7.6-1.7,21.8-1.7,42.4c0,20.9,0.1,32.4,0.3,34.6
		c0.2,2.2,0.7,3.7,1.6,4.4c0.9,0.8,4.2,1.8,10.1,3.2v3.5c-7.5-0.5-13.3-0.8-17.4-0.8c-4.4,0-10.1,0.3-17.1,0.8v-3.5
		c6.3-1.7,9.7-2.8,10.2-3.3c0.6-0.5,0.9-1.7,1-3.5c0.1-2.5,0.2-13.6,0.2-33.4l-0.1-28.8v-0.8c0-2.2-0.4-3.7-1.1-4.4
		c-0.7-0.7-1.8-1-3.3-1C153,193,150.6,193.3,147.1,194z"/>
	<path d="M187.8,194v-3.5c8.3-2.3,15.8-5,22.5-8l1.9,1c-1.1,7.6-1.7,21.8-1.7,42.4c0,20.9,0.1,32.4,0.3,34.6
		c0.2,2.2,0.7,3.7,1.6,4.4c0.9,0.8,4.2,1.8,10.1,3.2v3.5c-7.5-0.5-13.3-0.8-17.4-0.8c-4.4,0-10.1,0.3-17.1,0.8v-3.5
		c6.3-1.7,9.7-2.8,10.2-3.3c0.6-0.5,0.9-1.7,1-3.5c0.1-2.5,0.2-13.6,0.2-33.4l-0.1-28.8v-0.8c0-2.2-0.4-3.7-1.1-4.4
		c-0.7-0.7-1.8-1-3.3-1C193.7,193,191.3,193.3,187.8,194z"/>
	<path d="M230.2,271.8v-3.5c5.7-1.1,8.8-2.1,9.4-3c0.7-1.2,1.1-9,1.1-23.6c0-7.1,0.1-14.2,0.2-21.4c-3.5,0.1-6.9,0.2-10.2,0.5v-3
		c3.5-1.2,6.9-2.6,10.3-4.3c0-7,0.3-11.3,0.7-12.9c0.7-2.9,2.4-5.8,5.1-8.7c2.7-2.9,6.3-5.3,10.8-7.2c3.2-1.5,6.6-2.2,10.4-2.2
		c2.8,0,5.3,0.3,7.7,0.8c2.4,0.6,5.4,1.6,9,3.2c-1.7,4.2-3.2,8.5-4.5,13l-3.8-0.5c-0.7-3.9-2.1-6.7-4.2-8.3
		c-2.1-1.6-4.8-2.4-8.2-2.4c-3,0-5.4,0.8-7.3,2.4c-1.9,1.6-3.3,4-4,7.2c-0.5,2.1-0.8,6.5-0.8,13.1c0,0.8,0,2,0.1,3.6
		c3.3,0.1,5.3,0.1,6,0.1l12-0.1l0.9,0.8c-1.4,1.7-2.6,3.6-3.5,5.5c-5.2-0.3-10.2-0.5-15.3-0.5c-0.1,5.8-0.1,13.3-0.1,22.5l0.1,15.8
		v0.7c0,3.2,0.4,5.1,1.2,5.9c0.8,0.7,3.8,1.6,9,2.6c0.6,0.1,1.4,0.3,2.4,0.5v3.5c-6.3-0.5-11.6-0.8-16.1-0.8
		C244.6,271,238.5,271.3,230.2,271.8z"/>
	<path d="M272.1,219.5V216c8.5-0.4,16.3-1.3,23.5-2.8l1.8,1.1c-1,7-1.5,15.4-1.5,25.3c0,8.6,0.3,14.2,0.9,16.6
		c0.6,2.4,2,4.3,4.1,5.6c2.1,1.4,4.6,2.1,7.6,2.1c3.4,0,6.5-0.8,9.5-2.3c3-1.6,5-3.5,6.2-5.9c1.2-2.4,1.8-6.1,1.8-11.1
		c0-0.6-0.1-7.3-0.4-20.2c-0.2-1.7-0.8-2.9-1.8-3.5c-1-0.6-3.6-1-7.9-1.2l-2.5-0.2V216c9.9-0.7,17.6-1.6,23.2-2.8l1.8,1.1
		c-0.4,3.3-0.7,7.5-0.9,12.5c-0.2,5-0.3,10.8-0.3,17.5c0,8.4,0.3,13.4,0.8,15c0.5,1.6,1.8,2.4,3.9,2.4c1.2,0,3.6-0.2,7.3-0.5v3.5
		c-4.8,1.1-8.8,2.2-12,3.3c-3.3,1.1-6.7,2.6-10.4,4.4l-2.1-1.3c0.6-3,0.9-6,1-9c-5.5,4.4-9.7,7.3-12.4,8.5c-2.8,1.2-5.9,1.8-9.3,1.8
		c-6.5,0-11.3-1.4-14.5-4.1c-3.2-2.7-4.8-6.8-4.8-12.4v-21.1c0-7.5-0.6-11.9-1.5-13c-1-1.1-3.8-1.8-8.6-2.1
		C273.9,219.7,273.1,219.6,272.1,219.5z"/>
</g>
<g>
	<path fill="#4C8ECA" d="M65.4,285.5V285c0.9-0.3,1.5-0.5,1.9-0.6c0.4-0.2,0.8-0.4,1.2-0.6l0.2,0.2c-0.1,0.5-0.1,1.2-0.1,2
		c-0.1,1.7-0.1,2.9-0.1,3.6c0,0.2,0,0.5,0,1l1.3-1.2c0.2-0.2,0.5-0.4,0.8-0.5c0.4-0.1,0.8-0.2,1.2-0.2c0.7,0,1.3,0.2,1.8,0.6
		c0.4,0.4,0.7,0.9,0.8,1.6c0,0.4,0.1,2.2,0.1,5.4c0,0.5,0,0.8,0.1,0.9c0.1,0.1,0.5,0.2,1.1,0.4c0.1,0,0.2,0,0.3,0.1v0.6
		c-1.2-0.1-2-0.1-2.5-0.1c-0.6,0-1.4,0-2.2,0.1v-0.6l1.2-0.4c0.1,0,0.1-0.1,0.2-0.2c0.1-0.1,0.1-0.2,0.1-0.4c0-0.1,0-0.5,0.1-1.1
		l0.1-2.8c0-0.9-0.1-1.5-0.2-1.8c-0.1-0.3-0.3-0.6-0.6-0.8c-0.3-0.2-0.6-0.3-1-0.3c-0.5,0-0.9,0.1-1.4,0.4c-0.4,0.3-0.7,0.7-0.9,1.1
		c-0.2,0.4-0.2,1.2-0.2,2.2c0,1.5,0,2.4,0.1,2.8c0,0.3,0.1,0.5,0.2,0.5c0.1,0.1,0.4,0.2,1,0.4c0.1,0,0.2,0.1,0.3,0.1v0.6
		c-1-0.1-1.8-0.1-2.4-0.1c-0.6,0-1.4,0-2.4,0.1v-0.6c0.1,0,0.2-0.1,0.3-0.1c0.6-0.2,0.9-0.3,1-0.4c0.1-0.1,0.1-0.4,0.2-0.9
		c0-0.8,0.1-2.4,0.1-4.7c0-3.6,0-5.5-0.1-5.7c-0.1-0.2-0.3-0.3-0.6-0.3C66.2,285.4,65.9,285.5,65.4,285.5z"/>
	<path fill="#4C8ECA" d="M76.9,293.5c0-1.6,0.4-2.8,1.3-3.7c0.9-0.9,2.1-1.4,3.5-1.4c1.4,0,2.5,0.4,3.3,1.2c0.8,0.8,1.2,2,1.2,3.5
		c0,1.6-0.5,2.9-1.4,3.8c-0.9,0.9-2.1,1.4-3.5,1.4c-1.4,0-2.5-0.4-3.3-1.2C77.3,296.2,76.9,295,76.9,293.5z M78.8,292.7
		c0,1.1,0.1,1.9,0.2,2.4c0.2,0.8,0.6,1.4,1,1.8c0.5,0.4,1,0.6,1.6,0.6c0.8,0,1.5-0.3,2-0.9c0.5-0.6,0.8-1.6,0.8-2.9
		c0-1.5-0.3-2.6-0.9-3.3c-0.6-0.7-1.3-1.1-2.1-1.1c-0.8,0-1.4,0.3-1.9,0.9C79.1,290.6,78.8,291.5,78.8,292.7z"/>
	<path fill="#4C8ECA" d="M93.5,291.2l-0.7-0.1c0-0.6-0.2-1-0.6-1.4c-0.4-0.3-0.8-0.5-1.3-0.5c-0.5,0-0.8,0.1-1.1,0.4
		c-0.3,0.3-0.4,0.5-0.4,0.9c0,0.3,0.1,0.6,0.3,0.8c0.3,0.3,0.9,0.8,1.9,1.3c1,0.5,1.6,1,2,1.4c0.3,0.4,0.5,0.9,0.5,1.5
		c0,0.8-0.3,1.5-1,2.1c-0.6,0.6-1.5,0.9-2.6,0.9c-0.8,0-1.7-0.2-2.7-0.5c0.1-0.9,0.2-1.8,0.2-2.6h0.7c0.2,0.8,0.5,1.3,0.9,1.7
		c0.4,0.3,0.9,0.5,1.4,0.5c0.5,0,0.9-0.1,1.2-0.4c0.3-0.3,0.4-0.6,0.4-1c0-0.4-0.1-0.7-0.4-1.1c-0.3-0.3-0.9-0.7-1.9-1.2
		c-1-0.5-1.6-0.9-1.9-1.3c-0.3-0.4-0.5-0.8-0.5-1.3c0-0.7,0.3-1.3,1-1.9c0.6-0.6,1.5-0.8,2.5-0.8c0.7,0,1.5,0.2,2.4,0.5
		C93.6,289.5,93.6,290.2,93.5,291.2z"/>
	<path fill="#4C8ECA" d="M97.6,286.4h0.6l-0.2,2.5l2.7-0.1l0.1,0.2c-0.2,0.3-0.3,0.6-0.4,0.9c-0.8,0-1.5-0.1-2.3-0.1l-0.1,5v0.1
		c0,0.8,0.1,1.3,0.3,1.7c0.2,0.3,0.5,0.5,0.9,0.5c0.3,0,0.8-0.1,1.4-0.4l0.3,0.6c-0.7,0.4-1.2,0.7-1.6,0.9c-0.4,0.1-0.7,0.2-1,0.2
		c-0.4,0-0.8-0.1-1.1-0.3c-0.3-0.2-0.5-0.5-0.6-0.9c-0.1-0.2-0.1-0.9-0.1-2c0-1.2,0-2.9,0.1-5.2c-0.5,0-0.9,0-1.4,0.1v-0.6
		c0.5-0.2,1-0.6,1.4-1C96.8,287.9,97.2,287.2,97.6,286.4z"/>
	<path fill="#4C8ECA" d="M109,295.7l0.4,0.6l-1.9,1.4c-0.3,0.2-0.5,0.3-0.8,0.4c-0.4,0.1-0.8,0.2-1.3,0.2c-1.1,0-2-0.4-2.7-1.3
		c-0.8-0.9-1.1-2-1.1-3.5c0-1.6,0.5-2.8,1.4-3.8c0.9-0.9,2-1.4,3.3-1.4c1,0,1.8,0.3,2.3,0.8c0.6,0.6,0.8,1.4,0.8,2.6
		c-0.3,0.2-0.5,0.3-0.7,0.6c-0.5,0-0.8,0-0.9,0c-1.7,0-3.2,0-4.5,0.1c0,1.5,0.2,2.6,0.7,3.3c0.5,0.8,1.2,1.1,2,1.1
		c0.4,0,0.9-0.1,1.3-0.2C107.7,296.5,108.3,296.2,109,295.7z M107.6,291.4c0-0.7-0.2-1.2-0.4-1.5c-0.4-0.5-0.9-0.7-1.5-0.7
		c-0.5,0-1,0.2-1.4,0.6c-0.4,0.4-0.7,1-0.9,1.8c0.2,0,0.4,0,0.5,0C104.9,291.6,106.2,291.6,107.6,291.4z"/>
	<path fill="#4C8ECA" d="M110.3,290.3v-0.6c1.2-0.3,2.2-0.7,3.1-1.3l0.3,0.2c-0.1,0.6-0.2,1.3-0.2,2c0.8-0.9,1.3-1.5,1.6-1.7
		c0.3-0.2,0.7-0.3,1.1-0.3c0.3,0,0.6,0.1,0.9,0.2c-0.1,0.7-0.3,1.3-0.3,2h-0.5c-0.1-0.3-0.2-0.5-0.3-0.7c-0.1-0.1-0.3-0.2-0.5-0.2
		c-0.3,0-0.5,0.1-0.8,0.4c-0.4,0.4-0.8,0.8-1,1.2c-0.2,0.5-0.3,1.1-0.3,2c0,1.5,0,2.5,0.1,3c0,0.2,0.1,0.3,0.3,0.5
		c0.1,0.1,0.6,0.3,1.4,0.4v0.6c-0.8-0.1-1.6-0.1-2.2-0.1c-0.6,0-1.5,0-2.7,0.1v-0.6c0.9-0.2,1.4-0.4,1.5-0.5c0.1-0.1,0.2-0.4,0.2-1
		l0-2.1c0-2.1,0-3.2-0.1-3.3c-0.1-0.3-0.2-0.4-0.5-0.4c-0.2,0-0.4,0-0.8,0.1C110.4,290.3,110.4,290.3,110.3,290.3z"/>
	<path fill="#4C8ECA" d="M117.5,290.2v-0.6c1.1-0.3,2.1-0.7,3.1-1.3l0.3,0.2c-0.1,1.4-0.2,3.3-0.2,5.9c0,1.2,0,1.9,0.1,2.2
		c0,0.2,0.1,0.3,0.2,0.4c0.1,0.1,0.5,0.2,1,0.4c0.1,0,0.2,0.1,0.3,0.1v0.6c-0.9-0.1-1.6-0.1-2.1-0.1c-0.3,0-1.2,0-2.7,0.1v-0.6
		c0.9-0.2,1.4-0.4,1.5-0.6c0.1-0.2,0.2-1.1,0.2-2.8l0-2.1v-0.4c0-0.7,0-1.2-0.1-1.3c-0.1-0.2-0.3-0.2-0.5-0.2
		C118.4,290.1,118.1,290.2,117.5,290.2z M120,283.8c0.3,0,0.5,0.1,0.7,0.3c0.2,0.2,0.3,0.4,0.3,0.7c0,0.3-0.1,0.5-0.3,0.7
		c-0.2,0.2-0.4,0.3-0.7,0.3c-0.3,0-0.5-0.1-0.7-0.3c-0.2-0.2-0.3-0.4-0.3-0.7c0-0.3,0.1-0.5,0.3-0.7
		C119.5,283.8,119.7,283.8,120,283.8z"/>
	<path fill="#4C8ECA" d="M124.6,291.5l-0.6-0.1c0.1-0.7,0.3-1.3,0.3-2c1.2-0.6,2.4-0.9,3.4-0.9c0.4,0,0.8,0.1,1.2,0.2
		c0.4,0.1,0.6,0.3,0.8,0.5c0.2,0.2,0.4,0.5,0.5,0.8c0.1,0.3,0.2,0.8,0.2,1.5l-0.1,4c0,0.5,0.1,0.9,0.2,1.1c0.1,0.2,0.3,0.3,0.5,0.3
		c0.2,0,0.6-0.2,1.1-0.5l0.3,0.4c-0.9,0.8-1.4,1.3-1.5,1.3c-0.2,0.1-0.4,0.2-0.7,0.2c-0.4,0-0.7-0.1-1-0.3c-0.2-0.2-0.4-0.6-0.5-1.1
		c-0.8,0.6-1.4,1-1.7,1.2c-0.4,0.2-0.8,0.2-1.2,0.2c-0.7,0-1.3-0.2-1.7-0.7c-0.4-0.4-0.7-1-0.7-1.7c0-0.4,0.1-0.8,0.2-1.1
		c0.2-0.3,0.4-0.6,0.7-0.9c0.2-0.2,0.6-0.4,1.1-0.7c1.3-0.6,2.4-1.1,3.3-1.5c0-0.9-0.2-1.5-0.5-1.8c-0.3-0.3-0.7-0.5-1.2-0.5
		c-0.5,0-1,0.2-1.4,0.5C125.3,290.3,124.9,290.8,124.6,291.5z M128.7,292.6c-1.7,0.8-2.7,1.3-3.1,1.7c-0.4,0.3-0.5,0.8-0.5,1.3
		c0,0.5,0.1,0.9,0.4,1.2c0.3,0.3,0.6,0.4,0.9,0.4c0.4,0,0.8-0.1,1.2-0.4c0.4-0.2,0.7-0.5,0.9-0.8c0.1-0.3,0.2-0.9,0.2-1.7V292.6z"/>
	<path fill="#4C8ECA" d="M143.2,285.6V285c0.7-0.2,1.2-0.4,1.6-0.5c0.3-0.1,0.9-0.4,1.6-0.8l0.2,0.2c-0.1,1.5-0.2,4.3-0.2,8.4
		c0,2.3,0,3.5,0.1,3.8c0.1,0.3,0.3,0.4,0.6,0.4c0.2,0,0.5,0,1-0.1v0.6c-1.4,0.4-2.4,0.8-3.2,1.3l-0.2-0.2c0.1-0.5,0.1-1,0.1-1.5
		c-0.8,0.7-1.4,1.2-1.8,1.4c-0.4,0.2-0.8,0.3-1.4,0.3c-1,0-1.8-0.4-2.5-1.1c-0.7-0.7-1-1.8-1-3.2c0-0.9,0.2-1.7,0.5-2.4
		c0.2-0.5,0.6-1,1-1.5c0.5-0.5,1-0.8,1.5-1.1c0.6-0.3,1.1-0.4,1.7-0.4c0.3,0,0.5,0,0.9,0.1c0.3,0.1,0.7,0.2,1,0.3c0-0.3,0-0.5,0-0.6
		c0-1.5,0-2.4-0.1-2.6c-0.1-0.2-0.3-0.4-0.6-0.4c-0.1,0-0.3,0-0.6,0.1C143.5,285.5,143.4,285.6,143.2,285.6z M145,293.1
		c0-1.3,0-2-0.1-2.2c-0.1-0.4-0.4-0.7-0.8-1c-0.4-0.3-0.9-0.4-1.5-0.4c-0.7,0-1.4,0.3-1.9,0.9c-0.5,0.6-0.8,1.5-0.8,2.7
		c0,1.2,0.3,2.2,0.8,2.8c0.5,0.6,1.2,1,1.9,1c0.5,0,0.9-0.1,1.3-0.4c0.4-0.3,0.7-0.6,0.8-1C144.9,295.1,145,294.3,145,293.1z"/>
	<path fill="#4C8ECA" d="M156.6,295.7l0.4,0.6l-1.9,1.4c-0.3,0.2-0.5,0.3-0.8,0.4c-0.4,0.1-0.8,0.2-1.3,0.2c-1.1,0-2-0.4-2.7-1.3
		c-0.8-0.9-1.1-2-1.1-3.5c0-1.6,0.5-2.8,1.4-3.8c0.9-0.9,2-1.4,3.3-1.4c1,0,1.8,0.3,2.3,0.8c0.6,0.6,0.8,1.4,0.8,2.6
		c-0.3,0.2-0.5,0.3-0.7,0.6c-0.5,0-0.8,0-0.9,0c-1.7,0-3.2,0-4.5,0.1c0,1.5,0.2,2.6,0.7,3.3c0.5,0.8,1.2,1.1,2,1.1
		c0.4,0,0.9-0.1,1.3-0.2C155.3,296.5,155.9,296.2,156.6,295.7z M155.2,291.4c0-0.7-0.2-1.2-0.4-1.5c-0.4-0.5-0.9-0.7-1.5-0.7
		c-0.5,0-1,0.2-1.4,0.6c-0.4,0.4-0.7,1-0.9,1.8c0.2,0,0.4,0,0.6,0C152.5,291.6,153.8,291.6,155.2,291.4z"/>
	<path fill="#4C8ECA" d="M164.6,291.5l-0.6-0.1c0.1-0.7,0.3-1.3,0.3-2c1.3-0.6,2.4-0.9,3.4-0.9c0.4,0,0.8,0.1,1.2,0.2
		c0.4,0.1,0.6,0.3,0.8,0.5c0.2,0.2,0.4,0.5,0.5,0.8c0.1,0.3,0.2,0.8,0.2,1.5l-0.1,4c0,0.5,0.1,0.9,0.2,1.1c0.1,0.2,0.3,0.3,0.5,0.3
		c0.2,0,0.6-0.2,1.1-0.5l0.3,0.4c-0.9,0.8-1.4,1.3-1.5,1.3c-0.2,0.1-0.4,0.2-0.7,0.2c-0.4,0-0.8-0.1-1-0.3c-0.2-0.2-0.4-0.6-0.5-1.1
		c-0.8,0.6-1.4,1-1.7,1.2c-0.4,0.2-0.8,0.2-1.2,0.2c-0.7,0-1.3-0.2-1.7-0.7c-0.4-0.4-0.7-1-0.7-1.7c0-0.4,0.1-0.8,0.2-1.1
		c0.2-0.3,0.4-0.6,0.7-0.9c0.2-0.2,0.6-0.4,1.1-0.7c1.3-0.6,2.4-1.1,3.3-1.5c0-0.9-0.2-1.5-0.5-1.8c-0.3-0.3-0.7-0.5-1.2-0.5
		c-0.5,0-1,0.2-1.4,0.5C165.3,290.3,164.9,290.8,164.6,291.5z M168.7,292.6c-1.7,0.8-2.7,1.3-3.1,1.7c-0.4,0.3-0.5,0.8-0.5,1.3
		c0,0.5,0.1,0.9,0.4,1.2c0.3,0.3,0.6,0.4,0.9,0.4c0.4,0,0.8-0.1,1.2-0.4c0.4-0.2,0.7-0.5,0.9-0.8c0.1-0.3,0.2-0.9,0.2-1.7V292.6z"/>
	<path fill="#4C8ECA" d="M172.7,285.6V285c1.2-0.4,2.2-0.8,3.2-1.3l0.3,0.2c-0.2,1.2-0.2,3.5-0.2,6.8c0,3.3,0,5.2,0,5.6
		c0,0.4,0.1,0.6,0.2,0.7c0.1,0.1,0.6,0.3,1.4,0.5v0.6c-1-0.1-1.9-0.1-2.4-0.1c-0.6,0-1.4,0-2.4,0.1v-0.6c0.9-0.3,1.4-0.4,1.4-0.5
		c0.1-0.1,0.1-0.3,0.1-0.6c0-0.4,0-2.2,0-5.4l0-4.6v-0.1c0-0.4,0-0.6-0.1-0.7c-0.1-0.1-0.3-0.2-0.5-0.2
		C173.5,285.4,173.2,285.5,172.7,285.6z"/>
	<path fill="#4C8ECA" d="M180.7,286.4h0.6l-0.2,2.5l2.7-0.1l0.1,0.2c-0.2,0.3-0.3,0.6-0.4,0.9c-0.8,0-1.5-0.1-2.3-0.1l-0.1,5v0.1
		c0,0.8,0.1,1.3,0.3,1.7c0.2,0.3,0.5,0.5,0.9,0.5c0.3,0,0.8-0.1,1.4-0.4l0.3,0.6c-0.7,0.4-1.2,0.7-1.6,0.9s-0.7,0.2-1,0.2
		c-0.4,0-0.8-0.1-1.1-0.3c-0.3-0.2-0.5-0.5-0.6-0.9c-0.1-0.2-0.1-0.9-0.1-2c0-1.2,0-2.9,0.1-5.2c-0.5,0-0.9,0-1.4,0.1v-0.6
		c0.5-0.2,1-0.6,1.4-1C179.9,287.9,180.3,287.2,180.7,286.4z"/>
	<path fill="#4C8ECA" d="M185.9,291.5l-0.6-0.1c0.1-0.7,0.3-1.3,0.3-2c1.3-0.6,2.4-0.9,3.4-0.9c0.4,0,0.8,0.1,1.2,0.2
		c0.4,0.1,0.6,0.3,0.8,0.5c0.2,0.2,0.4,0.5,0.5,0.8c0.1,0.3,0.2,0.8,0.2,1.5l-0.1,4c0,0.5,0.1,0.9,0.2,1.1c0.1,0.2,0.3,0.3,0.5,0.3
		c0.2,0,0.6-0.2,1.1-0.5l0.3,0.4c-0.9,0.8-1.4,1.3-1.5,1.3c-0.2,0.1-0.4,0.2-0.7,0.2c-0.4,0-0.8-0.1-1-0.3c-0.2-0.2-0.4-0.6-0.5-1.1
		c-0.8,0.6-1.4,1-1.7,1.2c-0.4,0.2-0.8,0.2-1.2,0.2c-0.7,0-1.3-0.2-1.7-0.7c-0.4-0.4-0.7-1-0.7-1.7c0-0.4,0.1-0.8,0.2-1.1
		c0.2-0.3,0.4-0.6,0.7-0.9c0.2-0.2,0.6-0.4,1.1-0.7c1.3-0.6,2.4-1.1,3.3-1.5c0-0.9-0.2-1.5-0.5-1.8c-0.3-0.3-0.7-0.5-1.2-0.5
		c-0.5,0-1,0.2-1.4,0.5C186.5,290.3,186.2,290.8,185.9,291.5z M190,292.6c-1.7,0.8-2.7,1.3-3.1,1.7c-0.4,0.3-0.5,0.8-0.5,1.3
		c0,0.5,0.1,0.9,0.4,1.2c0.3,0.3,0.6,0.4,0.9,0.4c0.4,0,0.8-0.1,1.2-0.4c0.4-0.2,0.7-0.5,0.9-0.8c0.1-0.3,0.2-0.9,0.2-1.7V292.6z"/>
	<path fill="#4C8ECA" d="M199.2,290.3v-0.6c1.2-0.3,2.2-0.8,3.1-1.3l0.2,0.2c-0.1,0.5-0.2,1.1-0.2,1.6l1.4-1.3
		c0.2-0.2,0.4-0.3,0.6-0.4c0.4-0.1,0.7-0.2,1.1-0.2c0.7,0,1.3,0.2,1.8,0.6c0.3,0.3,0.6,0.7,0.7,1.3c0.7-0.8,1.3-1.3,1.6-1.5
		c0.5-0.3,1.1-0.4,1.7-0.4c0.5,0,0.9,0.1,1.3,0.3c0.4,0.2,0.7,0.4,0.9,0.7c0.2,0.3,0.3,0.6,0.4,0.9c0.1,0.3,0.1,0.8,0.1,1.5
		l-0.1,2.7c0,1.3,0,2.1,0.1,2.3c0,0.1,0.1,0.2,0.2,0.3c0.1,0.1,0.5,0.2,1.3,0.3v0.6c-0.8-0.1-1.5-0.1-2.1-0.1c-0.5,0-1.4,0-2.6,0.1
		v-0.6c0.1,0,0.2-0.1,0.3-0.1c0.6-0.2,0.9-0.3,1-0.4c0.1-0.1,0.1-0.4,0.2-0.8c0-0.9,0.1-1.9,0.1-3.1c0-1.1,0-1.8-0.1-2.2
		c-0.1-0.3-0.3-0.6-0.6-0.8c-0.3-0.2-0.6-0.3-1-0.3c-0.6,0-1.1,0.2-1.5,0.5c-0.4,0.3-0.7,0.8-0.9,1.3c-0.1,0.3-0.1,1.2-0.1,2.6
		c0,1.7,0.1,2.6,0.2,2.8c0.1,0.2,0.6,0.3,1.4,0.5v0.6c-0.8-0.1-1.6-0.1-2.3-0.1c-0.7,0-1.5,0-2.4,0.1v-0.6l0.3-0.1
		c0.6-0.2,1-0.3,1-0.4c0.1-0.2,0.2-0.8,0.2-1.8l0.1-2.9c0-0.9-0.2-1.6-0.5-1.9c-0.3-0.4-0.7-0.5-1.3-0.5c-0.5,0-0.9,0.1-1.3,0.4
		c-0.4,0.3-0.8,0.6-1,1.1c-0.2,0.4-0.2,0.9-0.2,1.8l0,1.7c0,1.3,0,2,0.1,2.1c0.1,0.1,0.5,0.3,1.2,0.5c0.1,0,0.2,0,0.3,0.1v0.6
		c-0.8-0.1-1.5-0.1-2.1-0.1c-0.6,0-1.4,0-2.5,0.1v-0.6c0.8-0.2,1.2-0.3,1.3-0.4c0.1-0.1,0.2-0.6,0.2-1.4v-0.3l0.1-2.8
		c0-1.2-0.1-1.9-0.2-2.1c-0.1-0.2-0.3-0.3-0.5-0.3C200,290.2,199.6,290.3,199.2,290.3z"/>
	<path fill="#4C8ECA" d="M216.4,293.5c0-1.6,0.4-2.8,1.3-3.7c0.9-0.9,2.1-1.4,3.5-1.4c1.4,0,2.5,0.4,3.3,1.2c0.8,0.8,1.2,2,1.2,3.5
		c0,1.6-0.5,2.9-1.4,3.8c-0.9,0.9-2.1,1.4-3.5,1.4c-1.4,0-2.5-0.4-3.3-1.2S216.4,295,216.4,293.5z M218.3,292.7
		c0,1.1,0.1,1.9,0.2,2.4c0.2,0.8,0.6,1.4,1,1.8c0.5,0.4,1,0.6,1.6,0.6c0.8,0,1.5-0.3,2-0.9c0.5-0.6,0.8-1.6,0.8-2.9
		c0-1.5-0.3-2.6-0.9-3.3c-0.6-0.7-1.3-1.1-2.1-1.1c-0.8,0-1.4,0.3-1.9,0.9C218.5,290.6,218.3,291.5,218.3,292.7z"/>
	<path fill="#4C8ECA" d="M226.8,290.3v-0.6c1.2-0.3,2.2-0.7,3.2-1.3l0.3,0.2c-0.1,0.6-0.1,1.1-0.2,1.7l1.2-1.2
		c0.2-0.2,0.4-0.3,0.7-0.4c0.4-0.1,0.8-0.2,1.2-0.2c0.9,0,1.6,0.3,2.1,0.9c0.3,0.4,0.5,1.1,0.5,2.1l0,2.4c0,1.6,0,2.5,0.1,2.8
		c0,0.2,0.1,0.3,0.2,0.4c0.1,0.1,0.4,0.2,0.9,0.3c0.1,0,0.2,0.1,0.4,0.1v0.6c-0.8-0.1-1.5-0.1-2.1-0.1c-0.5,0-1.4,0-2.7,0.1v-0.6
		c0.8-0.2,1.2-0.4,1.3-0.4c0.1-0.1,0.2-0.2,0.2-0.4c0.1-0.6,0.1-1.6,0.1-2.9c0-1.4,0-2.3-0.1-2.6c-0.1-0.4-0.3-0.8-0.6-1
		c-0.3-0.2-0.6-0.3-1.1-0.3c-0.4,0-0.9,0.1-1.3,0.4c-0.4,0.3-0.7,0.6-0.9,1c-0.2,0.4-0.3,1-0.3,1.9c0,2.3,0,3.6,0.1,3.8
		c0.1,0.2,0.5,0.4,1.1,0.5c0.1,0,0.2,0.1,0.4,0.1v0.6c-0.9-0.1-1.6-0.1-2.2-0.1c-0.6,0-1.4,0-2.6,0.1v-0.6c0.8-0.2,1.2-0.3,1.3-0.4
		c0.1-0.1,0.1-0.2,0.1-0.4c0.1-0.6,0.1-1.5,0.1-2.5c0-2.2,0-3.4-0.1-3.6c-0.1-0.3-0.3-0.4-0.6-0.4c-0.1,0-0.4,0-0.7,0.1
		C227.1,290.3,227,290.3,226.8,290.3z"/>
	<path fill="#4C8ECA" d="M240.4,286.4h0.6l-0.2,2.5l2.7-0.1l0.1,0.2c-0.2,0.3-0.3,0.6-0.4,0.9c-0.8,0-1.5-0.1-2.3-0.1l-0.1,5v0.1
		c0,0.8,0.1,1.3,0.3,1.7c0.2,0.3,0.5,0.5,0.9,0.5c0.3,0,0.8-0.1,1.4-0.4l0.3,0.6c-0.7,0.4-1.2,0.7-1.6,0.9c-0.4,0.1-0.7,0.2-1,0.2
		c-0.4,0-0.8-0.1-1.1-0.3c-0.3-0.2-0.5-0.5-0.6-0.9c-0.1-0.2-0.1-0.9-0.1-2c0-1.2,0-2.9,0.1-5.2c-0.5,0-0.9,0-1.4,0.1v-0.6
		c0.5-0.2,1-0.6,1.4-1C239.6,287.9,240,287.2,240.4,286.4z"/>
	<path fill="#4C8ECA" d="M245.6,291.5l-0.6-0.1c0.1-0.7,0.3-1.3,0.3-2c1.3-0.6,2.4-0.9,3.4-0.9c0.4,0,0.8,0.1,1.2,0.2
		c0.4,0.1,0.6,0.3,0.8,0.5c0.2,0.2,0.4,0.5,0.5,0.8c0.1,0.3,0.2,0.8,0.2,1.5l-0.1,4c0,0.5,0.1,0.9,0.2,1.1c0.1,0.2,0.3,0.3,0.5,0.3
		c0.2,0,0.6-0.2,1.1-0.5l0.3,0.4c-0.9,0.8-1.4,1.3-1.5,1.3c-0.2,0.1-0.4,0.2-0.7,0.2c-0.4,0-0.8-0.1-1-0.3c-0.2-0.2-0.4-0.6-0.5-1.1
		c-0.8,0.6-1.4,1-1.7,1.2c-0.4,0.2-0.8,0.2-1.2,0.2c-0.7,0-1.3-0.2-1.7-0.7c-0.4-0.4-0.7-1-0.7-1.7c0-0.4,0.1-0.8,0.2-1.1
		c0.2-0.3,0.4-0.6,0.7-0.9c0.2-0.2,0.6-0.4,1.1-0.7c1.3-0.6,2.4-1.1,3.3-1.5c0-0.9-0.2-1.5-0.5-1.8c-0.3-0.3-0.7-0.5-1.2-0.5
		c-0.5,0-1,0.2-1.4,0.5C246.2,290.3,245.9,290.8,245.6,291.5z M249.7,292.6c-1.7,0.8-2.7,1.3-3.1,1.7c-0.4,0.3-0.5,0.8-0.5,1.3
		c0,0.5,0.1,0.9,0.4,1.2c0.3,0.3,0.6,0.4,0.9,0.4c0.4,0,0.8-0.1,1.2-0.4c0.4-0.2,0.7-0.5,0.9-0.8c0.1-0.3,0.2-0.9,0.2-1.7V292.6z"/>
	<path fill="#4C8ECA" d="M253.7,290.3v-0.6c1.2-0.3,2.2-0.7,3.2-1.3l0.3,0.2c-0.1,0.6-0.1,1.1-0.2,1.7l1.2-1.2
		c0.2-0.2,0.4-0.3,0.7-0.4c0.4-0.1,0.8-0.2,1.2-0.2c0.9,0,1.6,0.3,2.1,0.9c0.3,0.4,0.5,1.1,0.5,2.1l0,2.4c0,1.6,0,2.5,0.1,2.8
		c0,0.2,0.1,0.3,0.2,0.4c0.1,0.1,0.4,0.2,0.9,0.3c0.1,0,0.2,0.1,0.4,0.1v0.6c-0.8-0.1-1.5-0.1-2.1-0.1c-0.5,0-1.4,0-2.7,0.1v-0.6
		c0.8-0.2,1.2-0.4,1.3-0.4c0.1-0.1,0.2-0.2,0.2-0.4c0.1-0.6,0.1-1.6,0.1-2.9c0-1.4,0-2.3-0.1-2.6c-0.1-0.4-0.3-0.8-0.6-1
		c-0.3-0.2-0.6-0.3-1.1-0.3c-0.4,0-0.9,0.1-1.3,0.4c-0.4,0.3-0.7,0.6-0.9,1c-0.2,0.4-0.3,1-0.3,1.9c0,2.3,0,3.6,0.1,3.8
		c0.1,0.2,0.5,0.4,1.1,0.5c0.1,0,0.2,0.1,0.4,0.1v0.6c-0.9-0.1-1.6-0.1-2.2-0.1c-0.6,0-1.4,0-2.6,0.1v-0.6c0.8-0.2,1.2-0.3,1.3-0.4
		c0.1-0.1,0.1-0.2,0.1-0.4c0.1-0.6,0.1-1.5,0.1-2.5c0-2.2,0-3.4-0.1-3.6c-0.1-0.3-0.3-0.4-0.6-0.4c-0.1,0-0.4,0-0.7,0.1
		C254,290.3,253.8,290.3,253.7,290.3z M261.6,285h0.6c-0.3,1-0.6,1.6-0.9,1.9c-0.3,0.3-0.6,0.4-1,0.4c-0.3,0-0.8-0.2-1.5-0.5
		c-0.7-0.3-1.2-0.5-1.5-0.5c-0.2,0-0.4,0.1-0.5,0.2c-0.2,0.1-0.3,0.4-0.5,0.8h-0.6c0.2-0.9,0.5-1.6,0.9-2c0.2-0.3,0.5-0.4,0.9-0.4
		c0.4,0,0.9,0.2,1.6,0.5c0.7,0.3,1.2,0.5,1.5,0.5c0.2,0,0.4-0.1,0.5-0.2C261.3,285.7,261.4,285.4,261.6,285z"/>
	<path fill="#4C8ECA" d="M266.4,291.5l-0.6-0.1c0.1-0.7,0.3-1.3,0.3-2c1.3-0.6,2.4-0.9,3.4-0.9c0.4,0,0.8,0.1,1.2,0.2
		c0.4,0.1,0.6,0.3,0.8,0.5c0.2,0.2,0.4,0.5,0.5,0.8c0.1,0.3,0.2,0.8,0.2,1.5l-0.1,4c0,0.5,0.1,0.9,0.2,1.1c0.1,0.2,0.3,0.3,0.5,0.3
		c0.2,0,0.6-0.2,1.1-0.5l0.3,0.4c-0.9,0.8-1.4,1.3-1.5,1.3c-0.2,0.1-0.4,0.2-0.7,0.2c-0.4,0-0.8-0.1-1-0.3c-0.2-0.2-0.4-0.6-0.5-1.1
		c-0.8,0.6-1.4,1-1.7,1.2c-0.4,0.2-0.8,0.2-1.2,0.2c-0.7,0-1.3-0.2-1.7-0.7c-0.4-0.4-0.7-1-0.7-1.7c0-0.4,0.1-0.8,0.2-1.1
		c0.2-0.3,0.4-0.6,0.7-0.9c0.2-0.2,0.6-0.4,1.1-0.7c1.3-0.6,2.4-1.1,3.3-1.5c0-0.9-0.2-1.5-0.5-1.8c-0.3-0.3-0.7-0.5-1.2-0.5
		c-0.5,0-1,0.2-1.4,0.5C267.1,290.3,266.7,290.8,266.4,291.5z M270.5,292.6c-1.7,0.8-2.7,1.3-3.1,1.7c-0.4,0.3-0.5,0.8-0.5,1.3
		c0,0.5,0.1,0.9,0.4,1.2c0.3,0.3,0.6,0.4,0.9,0.4c0.4,0,0.8-0.1,1.2-0.4c0.4-0.2,0.7-0.5,0.9-0.8c0.1-0.3,0.2-0.9,0.2-1.7V292.6z"/>
</g>
</svg>
